<?xml version="1.0" encoding="utf-8"?>
<!-- Generator: Adobe Illustrator 22.1.0, SVG Export Plug-In . SVG Version: 6.00 Build 0)  -->
<svg version="1.1" id="Layer_1" xmlns="http://www.w3.org/2000/svg" xmlns:xlink="http://www.w3.org/1999/xlink" x="0px" y="0px"
	 viewBox="0 0 576 512" style="enable-background:new 0 0 576 512;" xml:space="preserve">
<style type="text/css">
	.st0{fill:#82E370;}
</style>
<path class="st0" d="M288,0c-11.4,0-22.8,5.9-28.7,17.8L194,150.2L47.9,171.4c-26.2,3.8-36.7,36.1-17.7,54.6l105.7,103l-25,145.5
	c-4.5,26.1,23,46,46.4,33.7L288,439.6V0z"/>
<path class="st0" d="M308.5,439.6l130.7,68.6c23.4,12.3,50.9-7.6,46.4-33.7l-25-145.5l105.7-103c19-18.5,8.5-50.8-17.7-54.6
	l-146.1-21.2L337.2,17.8C331.3,5.9,319.9,0,308.5,0V439.6z"/>
<iframe  class="cleanslate" id="cmdline_iframe" src="moz-extension://9994e158-546e-2a4a-afc8-956bdfb53385/static/commandline.html" style="height: 0px !important;" xmlns="">
	</iframe>
</svg>
